<?xml version="1.0" encoding="UTF-8"?><svg id="Layer_1" xmlns="http://www.w3.org/2000/svg" viewBox="0 0 9.46 9.46"><path d="M0,3.11v-.99h.99v.99h-.99ZM0,3.11v-.99h.99v.99h-.99ZM0,3.11v-.99h.99v.99h-.99ZM0,3.11v-.99h.99v.99h-.99ZM0,7.35v-.99h.99v.99h-.99ZM0,7.35v-.99h.99v.99h-.99ZM0,7.35v-.99h.99v.99h-.99ZM0,7.35v-.99h.99v.99h-.99ZM2.12,4.17v-.99h.99v.99h-.99ZM2.12,4.17v-.99h.99v.99h-.99ZM2.12,4.17v-.99h.99v.99h-.99ZM2.12,4.17v-.99h.99v.99h-.99ZM2.12,6.29v-.99h.99v.99h-.99ZM2.12,6.29v-.99h.99v.99h-.99ZM2.12,6.29v-.99h.99v.99h-.99ZM2.12,6.29v-.99h.99v.99h-.99ZM4.23.99v-.99h.99v.99h-.99ZM4.23.99v-.99h.99v.99h-.99ZM4.23.99v-.99h.99v.99h-.99ZM4.23.99v-.99h.99v.99h-.99ZM4.23,3.11v-.99h.99v.99h-.99ZM4.23,3.11v-.99h.99v.99h-.99ZM4.23,3.11v-.99h.99v.99h-.99ZM4.23,3.11v-.99h.99v.99h-.99ZM4.23,7.35v-.99h.99v.99h-.99ZM4.23,7.35v-.99h.99v.99h-.99ZM4.23,7.35v-.99h.99v.99h-.99ZM4.23,7.35v-.99h.99v.99h-.99ZM4.23,9.46v-.99h.99v.99h-.99ZM4.23,9.46v-.99h.99v.99h-.99ZM4.23,9.46v-.99h.99v.99h-.99ZM4.23,9.46v-.99h.99v.99h-.99ZM6.35,4.17v-.99h.99v.99h-.99ZM6.35,4.17v-.99h.99v.99h-.99ZM6.35,4.17v-.99h.99v.99h-.99ZM6.35,4.17v-.99h.99v.99h-.99ZM6.35,6.29v-.99h.99v.99h-.99ZM6.35,6.29v-.99h.99v.99h-.99ZM6.35,6.29v-.99h.99v.99h-.99ZM6.35,6.29v-.99h.99v.99h-.99ZM8.47,3.11v-.99h.99v.99h-.99ZM8.47,3.11v-.99h.99v.99h-.99ZM8.47,3.11v-.99h.99v.99h-.99ZM8.47,3.11v-.99h.99v.99h-.99ZM8.47,7.35v-.99h.99v.99h-.99ZM8.47,7.35v-.99h.99v.99h-.99ZM8.47,7.35v-.99h.99v.99h-.99ZM8.47,7.35v-.99h.99v.99h-.99Z"/></svg>